<svg contentScriptType="application/ecmascript" contentStyleType="text/css" height="2822" preserveAspectRatio="none" viewBox="0 0 2717 2822" width="2717" xmlns="http://www.w3.org/2000/svg" xmlns:xlink="http://www.w3.org/1999/xlink" zoomAndPan="magnify"><filter id="a" height="300%" width="300%" x="-1" y="-1"><feGaussianBlur result="blurOut" stdDeviation="2"/><feColorMatrix in="blurOut" result="blurOut2" type="matrix" values="0 0 0 0 0 0 0 0 0 0 0 0 0 0 0 0 0 0 .4 0"/><feOffset dx="4" dy="4" in="blurOut2" result="blurOut3"/><feBlend in="SourceGraphic" in2="blurOut3" mode="normal"/></filter><text font-family="sans-serif" font-size="18" lengthAdjust="spacing" textLength="687" x="1012.5" y="29.4023">0x93ec31dc78d7a3a86c18ffb063a0b0c0cae0fca3c738072b99856f8270230cbd</text><text font-family="sans-serif" font-size="14" lengthAdjust="spacing" textLength="222" x="1245" y="2814.2773">Sun, 05 Dec 2021 04:44:51 GMT</text><g stroke="#a80036"><path d="m230.5 255.8379h10v1695.3965h-10z" fill="#fff" filter="url(#a)"/><path d="m347.5 300.459h10v1636.7754h-10z" fill="#809ecb" filter="url(#a)"/><path d="m1172.5 360.3906h10v213.0371h-10z" fill="#fff" filter="url(#a)"/><path d="m1172.5 709.9121h10v376.2109h-10z" fill="#fff" filter="url(#a)"/><path d="m1172.5 1261.918h10v474.1426h-10z" fill="#fff" filter="url(#a)"/><path d="m1172.5 1850.6133h10v14h-10z" fill="#fff" filter="url(#a)"/><path d="m2114.5 800.4648h10v59.9316h-10z" fill="#fff" filter="url(#a)"/><path d="m2114.5 920.3281h10v105.8633h-10z" fill="#fff" filter="url(#a)"/><path d="m2114.5 1383.0918h10v238.416h-10z" fill="#fff" filter="url(#a)"/><path d="m2295.5 1458.334h10v14h-10z" fill="#fff" filter="url(#a)"/><path d="m2487 1547.5762h10v14h-10z" fill="#fff" filter="url(#a)"/><path d="m2646 1909.2344h10v14h-10z" fill="#fff" filter="url(#a)"/><path d="m113 108.6641v2623.6132" stroke-dasharray="5 5"/><path d="m235 108.6641v2623.6132" stroke-dasharray="5 5"/><path d="m352 108.6641v2623.6132" stroke-dasharray="5 5"/><path d="m1177.5 108.6641v2623.6132" stroke-dasharray="5 5"/><path d="m2119.5 108.6641v2623.6132" stroke-dasharray="5 5"/><path d="m2300 108.6641v2623.6132" stroke-dasharray="5 5"/><path d="m2492 108.6641v2623.6132" stroke-dasharray="5 5"/><path d="m2651 108.6641v2623.6132" stroke-dasharray="5 5"/><path d="m55 73.1758h112v30.4883h-112z" fill="#fefece" filter="url(#a)" stroke-width="1.5"/></g><text font-family="sans-serif" font-size="14" lengthAdjust="spacing" textLength="98" x="62" y="93.7109">0xb152..0650</text><path d="m55 2731.2773h112v30.4883h-112z" fill="#fefece" filter="url(#a)" stroke="#a80036" stroke-width="1.5"/><text font-family="sans-serif" font-size="14" lengthAdjust="spacing" textLength="98" x="62" y="2751.8125">0xb152..0650</text><path d="m181 73.1758h105v30.4883h-105z" fill="#fefece" filter="url(#a)" stroke="#a80036" stroke-width="1.5"/><text font-family="sans-serif" font-size="14" lengthAdjust="spacing" textLength="91" x="188" y="93.7109">0xa57b..d6cf</text><path d="m181 2731.2773h105v30.4883h-105z" fill="#fefece" filter="url(#a)" stroke="#a80036" stroke-width="1.5"/><text font-family="sans-serif" font-size="14" lengthAdjust="spacing" textLength="91" x="188" y="2751.8125">0xa57b..d6cf</text><path d="m300 73.1758h101v30.4883h-101z" fill="#fefece" filter="url(#a)" stroke="#a80036" stroke-width="1.5"/><text font-family="sans-serif" font-size="14" lengthAdjust="spacing" textLength="87" x="307" y="93.7109">0xea75..baff</text><path d="m300 2731.2773h101v30.4883h-101z" fill="#fefece" filter="url(#a)" stroke="#a80036" stroke-width="1.5"/><text font-family="sans-serif" font-size="14" lengthAdjust="spacing" textLength="87" x="307" y="2751.8125">0xea75..baff</text><path d="m1010.5 40.1992h330v63.4648h-330z" fill="#fefece" filter="url(#a)" stroke="#a80036" stroke-width="1.5"/><text font-family="sans-serif" font-size="14" font-style="italic" lengthAdjust="spacing" textLength="316" x="1017.5" y="60.7344">«Uniswap V3 Positions NFT-V1 (UNI-V3-POS)»</text><text font-family="sans-serif" font-size="14" font-style="italic" lengthAdjust="spacing" textLength="214" x="1068.5" y="77.2227">«NonfungiblePositionManager»</text><text font-family="sans-serif" font-size="14" lengthAdjust="spacing" textLength="91" x="1130" y="93.7109">0xc364..fe88</text><path d="m1010.5 2731.2773h330v63.4648h-330z" fill="#fefece" filter="url(#a)" stroke="#a80036" stroke-width="1.5"/><text font-family="sans-serif" font-size="14" font-style="italic" lengthAdjust="spacing" textLength="316" x="1017.5" y="2751.8125">«Uniswap V3 Positions NFT-V1 (UNI-V3-POS)»</text><text font-family="sans-serif" font-size="14" font-style="italic" lengthAdjust="spacing" textLength="214" x="1068.5" y="2768.3008">«NonfungiblePositionManager»</text><text font-family="sans-serif" font-size="14" lengthAdjust="spacing" textLength="91" x="1130" y="2784.7891">0xc364..fe88</text><path d="m2050.5 56.6875h134v46.9766h-134z" fill="#fefece" filter="url(#a)" stroke="#a80036" stroke-width="1.5"/><text font-family="sans-serif" font-size="14" font-style="italic" lengthAdjust="spacing" textLength="120" x="2057.5" y="77.2227">«UniswapV3Pool»</text><text font-family="sans-serif" font-size="14" lengthAdjust="spacing" textLength="93" x="2071" y="93.7109">0xcbcd..62ed</text><path d="m2050.5 2731.2773h134v46.9766h-134z" fill="#fefece" filter="url(#a)" stroke="#a80036" stroke-width="1.5"/><text font-family="sans-serif" font-size="14" font-style="italic" lengthAdjust="spacing" textLength="120" x="2057.5" y="2751.8125">«UniswapV3Pool»</text><text font-family="sans-serif" font-size="14" lengthAdjust="spacing" textLength="93" x="2071" y="2768.3008">0xcbcd..62ed</text><path d="m2212 40.1992h173v63.4648h-173z" fill="#fefece" filter="url(#a)" stroke="#a80036" stroke-width="1.5"/><text font-family="sans-serif" font-size="14" font-style="italic" lengthAdjust="spacing" textLength="159" x="2219" y="60.7344">«Wrapped BTC (WBTC)»</text><text font-family="sans-serif" font-size="14" font-style="italic" lengthAdjust="spacing" textLength="53" x="2272" y="77.2227">«WBTC»</text><text font-family="sans-serif" font-size="14" lengthAdjust="spacing" textLength="96" x="2250.5" y="93.7109">0x2260..c599</text><path d="m2212 2731.2773h173v63.4648h-173z" fill="#fefece" filter="url(#a)" stroke="#a80036" stroke-width="1.5"/><text font-family="sans-serif" font-size="14" font-style="italic" lengthAdjust="spacing" textLength="159" x="2219" y="2751.8125">«Wrapped BTC (WBTC)»</text><text font-family="sans-serif" font-size="14" font-style="italic" lengthAdjust="spacing" textLength="53" x="2272" y="2768.3008">«WBTC»</text><text font-family="sans-serif" font-size="14" lengthAdjust="spacing" textLength="96" x="2250.5" y="2784.7891">0x2260..c599</text><path d="m2399 40.1992h182v63.4648h-182z" fill="#fefece" filter="url(#a)" stroke="#a80036" stroke-width="1.5"/><text font-family="sans-serif" font-size="14" font-style="italic" lengthAdjust="spacing" textLength="168" x="2406" y="60.7344">«Wrapped Ether (WETH)»</text><text font-family="sans-serif" font-size="14" font-style="italic" lengthAdjust="spacing" textLength="62" x="2459" y="77.2227">«WETH9»</text><text font-family="sans-serif" font-size="14" lengthAdjust="spacing" textLength="91" x="2444.5" y="93.7109">0xc02a..6cc2</text><path d="m2399 2731.2773h182v63.4648h-182z" fill="#fefece" filter="url(#a)" stroke="#a80036" stroke-width="1.5"/><text font-family="sans-serif" font-size="14" font-style="italic" lengthAdjust="spacing" textLength="168" x="2406" y="2751.8125">«Wrapped Ether (WETH)»</text><text font-family="sans-serif" font-size="14" font-style="italic" lengthAdjust="spacing" textLength="62" x="2459" y="2768.3008">«WETH9»</text><text font-family="sans-serif" font-size="14" lengthAdjust="spacing" textLength="91" x="2444.5" y="2784.7891">0xc02a..6cc2</text><path d="m2595 73.1758h108v30.4883h-108z" fill="#fefece" filter="url(#a)" stroke="#a80036" stroke-width="1.5"/><text font-family="sans-serif" font-size="14" lengthAdjust="spacing" textLength="94" x="2602" y="93.7109">0x3ece..d5bb</text><path d="m2595 2731.2773h108v30.4883h-108z" fill="#fefece" filter="url(#a)" stroke="#a80036" stroke-width="1.5"/><text font-family="sans-serif" font-size="14" lengthAdjust="spacing" textLength="94" x="2602" y="2751.8125">0x3ece..d5bb</text><path d="m230.5 255.8379h10v1695.3965h-10z" fill="#fff" filter="url(#a)" stroke="#a80036"/><path d="m347.5 300.459h10v1636.7754h-10z" fill="#809ecb" filter="url(#a)" stroke="#a80036"/><path d="m1172.5 360.3906h10v213.0371h-10z" fill="#fff" filter="url(#a)" stroke="#a80036"/><path d="m1172.5 709.9121h10v376.2109h-10z" fill="#fff" filter="url(#a)" stroke="#a80036"/><path d="m1172.5 1261.918h10v474.1426h-10z" fill="#fff" filter="url(#a)" stroke="#a80036"/><path d="m1172.5 1850.6133h10v14h-10z" fill="#fff" filter="url(#a)" stroke="#a80036"/><path d="m2114.5 800.4648h10v59.9316h-10z" fill="#fff" filter="url(#a)" stroke="#a80036"/><path d="m2114.5 920.3281h10v105.8633h-10z" fill="#fff" filter="url(#a)" stroke="#a80036"/><path d="m2114.5 1383.0918h10v238.416h-10z" fill="#fff" filter="url(#a)" stroke="#a80036"/><path d="m2295.5 1458.334h10v14h-10z" fill="#fff" filter="url(#a)" stroke="#a80036"/><path d="m2487 1547.5762h10v14h-10z" fill="#fff" filter="url(#a)" stroke="#a80036"/><path d="m2646 1909.2344h10v14h-10z" fill="#fff" filter="url(#a)" stroke="#a80036"/><path d="m5 123.6641v86h212v-76l-10-10z" fill="#fbfb77" filter="url(#a)" stroke="#a80036"/><path d="m207 123.6641v10h10z" fill="#fbfb77" stroke="#a80036"/><text font-family="sans-serif" font-size="13" lengthAdjust="spacing" textLength="84" x="11" y="141.2324">Nonce: 2,480</text><text font-family="sans-serif" font-size="13" lengthAdjust="spacing" textLength="191" x="11" y="156.543">Gas Price: 63.653634782 Gwei</text><text font-family="sans-serif" font-size="13" lengthAdjust="spacing" textLength="119" x="11" y="171.8535">Gas Limit: 800,000</text><text font-family="sans-serif" font-size="13" lengthAdjust="spacing" textLength="118" x="11" y="187.1641">Gas Used: 241,225</text><text font-family="sans-serif" font-size="13" lengthAdjust="spacing" textLength="114" x="11" y="202.4746">Tx Fee: 0.015 ETH</text><path d="m218.5 251.8379 10 4-10 4 4-4z" fill="#a80036" stroke="#a80036"/><path d="m113 255.8379h111.5" stroke="#a80036"/><text font-family="sans-serif" font-size="13" lengthAdjust="spacing" textLength="76" x="120" y="235.7852">0x78e111f6</text><text font-family="sans-serif" font-size="13" lengthAdjust="spacing" textLength="78" x="120" y="251.0957">195,899 gas</text><path d="m345.5 300.459-10-4" stroke="#a80036"/><path d="m345.5 300.459-10 4" stroke="#a80036"/><path d="m240.5 300.459h106" stroke="#a80036"/><text font-family="sans-serif" font-size="13" lengthAdjust="spacing" textLength="74" x="247.5" y="280.4063">0x33ef3e6a</text><text font-family="sans-serif" font-size="13" lengthAdjust="spacing" textLength="78" x="247.5" y="295.7168">192,429 gas</text><path d="m1160.5 356.3906 10 4-10 4 4-4z" fill="#3471cd" stroke="#3471cd"/><path d="m240.5 360.3906h926" stroke="#3471cd"/><text font-family="sans-serif" font-size="13" lengthAdjust="spacing" textLength="63" x="247.5" y="325.0273">positions(</text><text font-family="sans-serif" font-size="13" lengthAdjust="spacing" textLength="112" x="247.5" y="340.3379">tokenId: 162,826)</text><text font-family="sans-serif" font-size="13" lengthAdjust="spacing" textLength="62" x="247.5" y="355.6484">2,948 gas</text><path d="m251.5 569.4277-10 4 10 4-4-4z" fill="#3471cd" stroke="#3471cd"/><path d="m245.5 573.4277h931" stroke="#3471cd" stroke-dasharray="2 2"/><text lengthAdjust="spacing" textLength="0" x="261.5" y="384.959"/><text font-family="sans-serif" font-size="13" lengthAdjust="spacing" textLength="58" x="257.5" y="400.2695">nonce: 0,</text><text font-family="sans-serif" font-size="13" lengthAdjust="spacing" textLength="153" x="257.5" y="415.5801">operator: 0x0000..0000,</text><text font-family="sans-serif" font-size="13" lengthAdjust="spacing" textLength="145" x="257.5" y="430.8906">token0: 0x2260..C599,</text><text font-family="sans-serif" font-size="13" lengthAdjust="spacing" textLength="144" x="257.5" y="446.2012">token1: 0xC02a..6Cc2,</text><text font-family="sans-serif" font-size="13" lengthAdjust="spacing" textLength="67" x="257.5" y="461.5117">fee: 3,000,</text><text font-family="sans-serif" font-size="13" lengthAdjust="spacing" textLength="125" x="257.5" y="476.8223">tickLower: 254,880,</text><text font-family="sans-serif" font-size="13" lengthAdjust="spacing" textLength="125" x="257.5" y="492.1328">tickUpper: 254,940,</text><text font-family="sans-serif" font-size="13" lengthAdjust="spacing" textLength="252" x="257.5" y="507.4434">liquidity: 14,,678,865,400,617,579,034,</text><text font-family="sans-serif" font-size="13" lengthAdjust="spacing" textLength="908" x="257.5" y="522.7539">feeGrowthInside0LastX128: 115,792,089,237,316,195,423,570,985,008,687,907,853,269,984,663,412,733,259,474,,677,088,448,649,884,915,</text><text font-family="sans-serif" font-size="13" lengthAdjust="spacing" textLength="908" x="257.5" y="538.0645">feeGrowthInside1LastX128: 115,792,089,237,316,195,423,570,985,008,687,907,584,855,236,007,295,087,799,702,,827,050,580,022,360,495,</text><text font-family="sans-serif" font-size="13" lengthAdjust="spacing" textLength="106" x="257.5" y="553.375">tokensOwed0: 0,</text><text font-family="sans-serif" font-size="13" lengthAdjust="spacing" textLength="102" x="257.5" y="568.6855">tokensOwed1: 0</text><path d="m1160.5 705.9121 10 4-10 4 4-4z" fill="#3471cd" stroke="#3471cd"/><path d="m240.5 709.9121h926" stroke="#3471cd"/><text font-family="sans-serif" font-size="13" lengthAdjust="spacing" textLength="114" x="247.5" y="597.9961">decreaseLiquidity(</text><text font-family="sans-serif" font-size="13" lengthAdjust="spacing" textLength="58" x="247.5" y="613.3066">params: [</text><text font-family="sans-serif" font-size="13" lengthAdjust="spacing" textLength="112" x="255.5" y="628.6172">tokenId: 162,826,</text><text font-family="sans-serif" font-size="13" lengthAdjust="spacing" textLength="252" x="255.5" y="643.9277">liquidity: 14,,678,865,400,617,579,034,</text><text font-family="sans-serif" font-size="13" lengthAdjust="spacing" textLength="99" x="255.5" y="659.2383">amount0Min: 0,</text><text font-family="sans-serif" font-size="13" lengthAdjust="spacing" textLength="99" x="255.5" y="674.5488">amount1Min: 0,</text><text font-family="sans-serif" font-size="13" lengthAdjust="spacing" textLength="797" x="255.5" y="689.8594">deadline: 115,792,089,237,316,195,423,570,985,008,687,907,853,269,984,665,640,564,039,457,,584,007,913,129,639,935])</text><text font-family="sans-serif" font-size="13" lengthAdjust="spacing" textLength="70" x="247.5" y="705.1699">91,411 gas</text><path d="m2102.5 796.4648 10 4-10 4 4-4z" fill="#a80036" stroke="#a80036"/><path d="m1182.5 800.4648h926" stroke="#a80036"/><text font-family="sans-serif" font-size="13" lengthAdjust="spacing" textLength="33" x="1189.5" y="734.4805">burn(</text><text font-family="sans-serif" font-size="13" lengthAdjust="spacing" textLength="125" x="1189.5" y="749.791">tickLower: 254,880,</text><text font-family="sans-serif" font-size="13" lengthAdjust="spacing" textLength="125" x="1189.5" y="765.1016">tickUpper: 254,940,</text><text font-family="sans-serif" font-size="13" lengthAdjust="spacing" textLength="248" x="1189.5" y="780.4121">amount: 14,,678,865,400,617,579,034)</text><text font-family="sans-serif" font-size="13" lengthAdjust="spacing" textLength="70" x="1189.5" y="795.7227">54,867 gas</text><path d="m1193.5 856.3965-10 4 10 4-4-4z" fill="#a80036" stroke="#a80036"/><path d="m1187.5 860.3965h931" stroke="#a80036" stroke-dasharray="2 2"/><text lengthAdjust="spacing" textLength="0" x="1203.5" y="825.0332"/><text font-family="sans-serif" font-size="13" lengthAdjust="spacing" textLength="168" x="1199.5" y="840.3438">amount0: 43,361,497,518,</text><text font-family="sans-serif" font-size="13" lengthAdjust="spacing" textLength="272" x="1199.5" y="855.6543">amount1: 9,989,,181,888,668,018,345,289</text><path d="m2102.5 916.3281 10 4-10 4 4-4z" fill="#a80036" stroke="#a80036"/><path d="m1182.5 920.3281h926" stroke="#a80036"/><text font-family="sans-serif" font-size="13" lengthAdjust="spacing" textLength="63" x="1189.5" y="884.9648">positions(</text><text font-family="sans-serif" font-size="13" lengthAdjust="spacing" textLength="508" x="1189.5" y="900.2754">0xbca03deb2fc4dd43b24a17c7c861ea28e4cebd14b4765f193633f633ee12e559)</text><text font-family="sans-serif" font-size="13" lengthAdjust="spacing" textLength="62" x="1189.5" y="915.5859">1,013 gas</text><path d="m1193.5 1022.1914-10 4 10 4-4-4z" fill="#a80036" stroke="#a80036"/><path d="m1187.5 1026.1914h931" stroke="#a80036" stroke-dasharray="2 2"/><text lengthAdjust="spacing" textLength="0" x="1203.5" y="944.8965"/><text font-family="sans-serif" font-size="13" lengthAdjust="spacing" textLength="72" x="1199.5" y="960.207">liquidity: 0,</text><text font-family="sans-serif" font-size="13" lengthAdjust="spacing" textLength="908" x="1199.5" y="975.5176">feeGrowthInside0LastX128: 115,792,089,237,316,195,423,570,985,008,687,907,853,269,984,663,413,820,250,229,,274,940,308,518,036,527,</text><text font-family="sans-serif" font-size="13" lengthAdjust="spacing" textLength="908" x="1199.5" y="990.8281">feeGrowthInside1LastX128: 115,792,089,237,316,195,423,570,985,008,687,907,584,855,236,007,295,087,799,702,,827,050,580,022,360,495,</text><text font-family="sans-serif" font-size="13" lengthAdjust="spacing" textLength="198" x="1199.5" y="1006.1387">tokensOwed0: 43,408,387,373,</text><text font-family="sans-serif" font-size="13" lengthAdjust="spacing" textLength="302" x="1199.5" y="1021.4492">tokensOwed1: 9,989,,181,888,668,018,345,289</text><path d="m251.5 1082.123-10 4 10 4-4-4z" fill="#3471cd" stroke="#3471cd"/><path d="m245.5 1086.123h931" stroke="#3471cd" stroke-dasharray="2 2"/><text lengthAdjust="spacing" textLength="0" x="261.5" y="1050.7598"/><text font-family="sans-serif" font-size="13" lengthAdjust="spacing" textLength="168" x="257.5" y="1066.0703">amount0: 43,361,497,518,</text><text font-family="sans-serif" font-size="13" lengthAdjust="spacing" textLength="272" x="257.5" y="1081.3809">amount1: 9,989,,181,888,668,018,345,289</text><path d="m1182 1099.123v40h91v-30l-10-10z" fill="#fbfb77" filter="url(#a)" stroke="#a80036"/><path d="m1263 1099.123v10h10z" fill="#fbfb77" stroke="#a80036"/><text lengthAdjust="spacing" textLength="0" x="1192" y="1116.6914"/><text font-family="sans-serif" font-size="13" lengthAdjust="spacing" textLength="70" x="1188" y="1132.002">35,531 gas</text><path d="m1160.5 1257.918 10 4-10 4 4-4z" fill="#3471cd" stroke="#3471cd"/><path d="m240.5 1261.918h926" stroke="#3471cd"/><text font-family="sans-serif" font-size="13" lengthAdjust="spacing" textLength="46" x="247.5" y="1165.3125">collect(</text><text font-family="sans-serif" font-size="13" lengthAdjust="spacing" textLength="58" x="247.5" y="1180.623">params: [</text><text font-family="sans-serif" font-size="13" lengthAdjust="spacing" textLength="112" x="255.5" y="1195.9336">tokenId: 162,826,</text><text font-family="sans-serif" font-size="13" lengthAdjust="spacing" textLength="151" x="255.5" y="1211.2441">recipient: 0x5617..5Bf9,</text><text font-family="sans-serif" font-size="13" lengthAdjust="spacing" textLength="458" x="255.5" y="1226.5547">amount0Max: 340,282,366,920,938,463,463,,374,607,431,768,211,455,</text><text font-family="sans-serif" font-size="13" lengthAdjust="spacing" textLength="462" x="255.5" y="1241.8652">amount1Max: 340,282,366,920,938,463,463,,374,607,431,768,211,455])</text><text font-family="sans-serif" font-size="13" lengthAdjust="spacing" textLength="70" x="247.5" y="1257.1758">36,331 gas</text><path d="m2102.5 1379.0918 10 4-10 4 4-4z" fill="#a80036" stroke="#a80036"/><path d="m1182.5 1383.0918h926" stroke="#a80036"/><text font-family="sans-serif" font-size="13" lengthAdjust="spacing" textLength="46" x="1189.5" y="1286.4863">collect(</text><text font-family="sans-serif" font-size="13" lengthAdjust="spacing" textLength="151" x="1189.5" y="1301.7969">recipient: 0x5617..5Bf9,</text><text font-family="sans-serif" font-size="13" lengthAdjust="spacing" textLength="125" x="1189.5" y="1317.1074">tickLower: 254,880,</text><text font-family="sans-serif" font-size="13" lengthAdjust="spacing" textLength="125" x="1189.5" y="1332.418">tickUpper: 254,940,</text><text font-family="sans-serif" font-size="13" lengthAdjust="spacing" textLength="233" x="1189.5" y="1347.7285">amount0Requested: 43,408,387,373,</text><text font-family="sans-serif" font-size="13" lengthAdjust="spacing" textLength="341" x="1189.5" y="1363.0391">amount1Requested: 9,989,,181,888,668,018,345,289)</text><text font-family="sans-serif" font-size="13" lengthAdjust="spacing" textLength="70" x="1189.5" y="1378.3496">28,690 gas</text><path d="m2283.5 1454.334 10 4-10 4 4-4z" fill="#a80036" stroke="#a80036"/><path d="m2124.5 1458.334h165" stroke="#a80036"/><text font-family="sans-serif" font-size="13" lengthAdjust="spacing" textLength="53" x="2131.5" y="1407.6602">transfer(</text><text font-family="sans-serif" font-size="13" lengthAdjust="spacing" textLength="116" x="2131.5" y="1422.9707">_to: 0x5617..5Bf9,</text><text font-family="sans-serif" font-size="13" lengthAdjust="spacing" textLength="152" x="2131.5" y="1438.2813">_value: 43,408,387,373)</text><text font-family="sans-serif" font-size="13" lengthAdjust="spacing" textLength="62" x="2131.5" y="1453.5918">9,703 gas</text><path d="m2135.5 1468.334-10 4 10 4-4-4z" fill="#a80036" stroke="#a80036"/><path d="m2129.5 1472.334h170" stroke="#a80036" stroke-dasharray="2 2"/><path d="m2475 1543.5762 10 4-10 4 4-4z" fill="#a80036" stroke="#a80036"/><path d="m2124.5 1547.5762h356.5" stroke="#a80036"/><text font-family="sans-serif" font-size="13" lengthAdjust="spacing" textLength="53" x="2131.5" y="1496.9023">transfer(</text><text font-family="sans-serif" font-size="13" lengthAdjust="spacing" textLength="116" x="2131.5" y="1512.2129">dst: 0x5617..5Bf9,</text><text font-family="sans-serif" font-size="13" lengthAdjust="spacing" textLength="245" x="2131.5" y="1527.5234">wad: 9,989,,181,888,668,018,345,289)</text><text font-family="sans-serif" font-size="13" lengthAdjust="spacing" textLength="62" x="2131.5" y="1542.834">8,862 gas</text><path d="m2135.5 1557.5762-10 4 10 4-4-4z" fill="#a80036" stroke="#a80036"/><path d="m2129.5 1561.5762h361.5" stroke="#a80036" stroke-dasharray="2 2"/><path d="m1193.5 1617.5078-10 4 10 4-4-4z" fill="#a80036" stroke="#a80036"/><path d="m1187.5 1621.5078h931" stroke="#a80036" stroke-dasharray="2 2"/><text lengthAdjust="spacing" textLength="0" x="1203.5" y="1586.1445"/><text font-family="sans-serif" font-size="13" lengthAdjust="spacing" textLength="168" x="1199.5" y="1601.4551">amount0: 43,408,387,373,</text><text font-family="sans-serif" font-size="13" lengthAdjust="spacing" textLength="272" x="1199.5" y="1616.7656">amount1: 9,989,,181,888,668,018,345,289</text><path d="m2124 1634.5078v40h91v-30l-10-10z" fill="#fbfb77" filter="url(#a)" stroke="#a80036"/><path d="m2205 1634.5078v10h10z" fill="#fbfb77" stroke="#a80036"/><text lengthAdjust="spacing" textLength="0" x="2134" y="1652.0762"/><text font-family="sans-serif" font-size="13" lengthAdjust="spacing" textLength="70" x="2130" y="1667.3867">10,125 gas</text><path d="m251.5 1732.0605-10 4 10 4-4-4z" fill="#3471cd" stroke="#3471cd"/><path d="m245.5 1736.0605h931" stroke="#3471cd" stroke-dasharray="2 2"/><text lengthAdjust="spacing" textLength="0" x="261.5" y="1700.6973"/><text font-family="sans-serif" font-size="13" lengthAdjust="spacing" textLength="168" x="257.5" y="1716.0078">amount0: 43,408,387,373,</text><text font-family="sans-serif" font-size="13" lengthAdjust="spacing" textLength="272" x="257.5" y="1731.3184">amount1: 9,989,,181,888,668,018,345,289</text><path d="m1182 1749.0605v40h83v-30l-10-10z" fill="#fbfb77" filter="url(#a)" stroke="#a80036"/><path d="m1255 1749.0605v10h10z" fill="#fbfb77" stroke="#a80036"/><text lengthAdjust="spacing" textLength="0" x="1192" y="1766.6289"/><text font-family="sans-serif" font-size="13" lengthAdjust="spacing" textLength="62" x="1188" y="1781.9395">7,641 gas</text><path d="m1160.5 1846.6133 10 4-10 4 4-4z" fill="#3471cd" stroke="#3471cd"/><path d="m240.5 1850.6133h926" stroke="#3471cd"/><text font-family="sans-serif" font-size="13" lengthAdjust="spacing" textLength="33" x="247.5" y="1815.25">burn(</text><text font-family="sans-serif" font-size="13" lengthAdjust="spacing" textLength="112" x="247.5" y="1830.5605">tokenId: 162,826)</text><text font-family="sans-serif" font-size="13" lengthAdjust="spacing" textLength="70" x="247.5" y="1845.8711">35,068 gas</text><path d="m251.5 1860.6133-10 4 10 4-4-4z" fill="#3471cd" stroke="#3471cd"/><path d="m245.5 1864.6133h931" stroke="#3471cd" stroke-dasharray="2 2"/><path d="m2634 1905.2344 10 4-10 4 4-4z" fill="#3471cd" stroke="#3471cd"/><path d="m240.5 1909.2344h2399.5" stroke="#3471cd"/><text font-family="sans-serif" font-size="13" lengthAdjust="spacing" textLength="58" x="247.5" y="1889.1816">fallback()</text><text font-family="sans-serif" font-size="13" lengthAdjust="spacing" textLength="65" x="247.5" y="1904.4922">0.794 ETH</text><path d="m251.5 1919.2344-10 4 10 4-4-4z" fill="#3471cd" stroke="#3471cd"/><path d="m245.5 1923.2344h2404.5" stroke="#3471cd" stroke-dasharray="2 2"/><path d="m240.5 1937.2344 10-4" stroke="#a80036"/><path d="m240.5 1937.2344 10 4" stroke="#a80036"/><path d="m240.5 1937.2344h111" stroke="#a80036" stroke-dasharray="2 2"/><path d="m124 1947.2344-10 4 10 4-4-4z" fill="#a80036" stroke="#a80036"/><path d="m118 1951.2344h116.5" stroke="#a80036" stroke-dasharray="2 2"/><path d="m240 1964.2344v40h83v-30l-10-10z" fill="#fbfb77" filter="url(#a)" stroke="#a80036"/><path d="m313 1964.2344v10h10z" fill="#fbfb77" stroke="#a80036"/><text lengthAdjust="spacing" textLength="0" x="250" y="1981.8027"/><text font-family="sans-serif" font-size="13" lengthAdjust="spacing" textLength="62" x="246" y="1997.1133">3,470 gas</text><path d="m1029 2018.8555v285h293v-275l-10-10z" fill="#0ff" filter="url(#a)" stroke="#a80036"/><path d="m1312 2018.8555v10h10z" fill="#0ff" stroke="#a80036"/><text font-family="sans-serif" font-size="13" lengthAdjust="spacing" textLength="116" x="1035" y="2036.4238">DecreaseLiquidity:</text><text font-family="sans-serif" font-size="13" lengthAdjust="spacing" textLength="112" x="1035" y="2051.7344">tokenId: 162,826,</text><text font-family="sans-serif" font-size="13" lengthAdjust="spacing" textLength="252" x="1035" y="2067.0449">liquidity: 14,,678,865,400,617,579,034,</text><text font-family="sans-serif" font-size="13" lengthAdjust="spacing" textLength="168" x="1035" y="2082.3555">amount0: 43,361,497,518,</text><text font-family="sans-serif" font-size="13" lengthAdjust="spacing" textLength="272" x="1035" y="2097.666">amount1: 9,989,,181,888,668,018,345,289</text><text font-family="sans-serif" font-size="13" lengthAdjust="spacing" textLength="48" x="1035" y="2112.9766">Collect:</text><text font-family="sans-serif" font-size="13" lengthAdjust="spacing" textLength="112" x="1035" y="2128.2871">tokenId: 162,826,</text><text font-family="sans-serif" font-size="13" lengthAdjust="spacing" textLength="151" x="1035" y="2143.5977">recipient: 0x5617..5Bf9,</text><text font-family="sans-serif" font-size="13" lengthAdjust="spacing" textLength="168" x="1035" y="2158.9082">amount0: 43,408,387,373,</text><text font-family="sans-serif" font-size="13" lengthAdjust="spacing" textLength="272" x="1035" y="2174.2188">amount1: 9,989,,181,888,668,018,345,289</text><text font-family="sans-serif" font-size="13" lengthAdjust="spacing" textLength="60" x="1035" y="2189.5293">Approval:</text><text font-family="sans-serif" font-size="13" lengthAdjust="spacing" textLength="136" x="1035" y="2204.8398">owner: 0xa57B..d6CF,</text><text font-family="sans-serif" font-size="13" lengthAdjust="spacing" textLength="158" x="1035" y="2220.1504">approved: 0x0000..0000,</text><text font-family="sans-serif" font-size="13" lengthAdjust="spacing" textLength="108" x="1035" y="2235.4609">tokenId: 162,826</text><text font-family="sans-serif" font-size="13" lengthAdjust="spacing" textLength="56" x="1035" y="2250.7715">Transfer:</text><text font-family="sans-serif" font-size="13" lengthAdjust="spacing" textLength="128" x="1035" y="2266.082">from: 0xa57B..d6CF,</text><text font-family="sans-serif" font-size="13" lengthAdjust="spacing" textLength="113" x="1035" y="2281.3926">to: 0x0000..0000,</text><text font-family="sans-serif" font-size="13" lengthAdjust="spacing" textLength="108" x="1035" y="2296.7031">tokenId: 162,826</text><path d="m1971 2318.4453v224h293v-214l-10-10z" fill="#0ff" filter="url(#a)" stroke="#a80036"/><path d="m2254 2318.4453v10h10z" fill="#0ff" stroke="#a80036"/><text font-family="sans-serif" font-size="13" lengthAdjust="spacing" textLength="32" x="1977" y="2336.0137">Burn:</text><text font-family="sans-serif" font-size="13" lengthAdjust="spacing" textLength="137" x="1977" y="2351.3242">owner: 0xC364..FE88,</text><text font-family="sans-serif" font-size="13" lengthAdjust="spacing" textLength="125" x="1977" y="2366.6348">tickLower: 254,880,</text><text font-family="sans-serif" font-size="13" lengthAdjust="spacing" textLength="125" x="1977" y="2381.9453">tickUpper: 254,940,</text><text font-family="sans-serif" font-size="13" lengthAdjust="spacing" textLength="248" x="1977" y="2397.2559">amount: 14,,678,865,400,617,579,034,</text><text font-family="sans-serif" font-size="13" lengthAdjust="spacing" textLength="168" x="1977" y="2412.5664">amount0: 43,361,497,518,</text><text font-family="sans-serif" font-size="13" lengthAdjust="spacing" textLength="272" x="1977" y="2427.877">amount1: 9,989,,181,888,668,018,345,289</text><text font-family="sans-serif" font-size="13" lengthAdjust="spacing" textLength="48" x="1977" y="2443.1875">Collect:</text><text font-family="sans-serif" font-size="13" lengthAdjust="spacing" textLength="137" x="1977" y="2458.498">owner: 0xC364..FE88,</text><text font-family="sans-serif" font-size="13" lengthAdjust="spacing" textLength="151" x="1977" y="2473.8086">recipient: 0x5617..5Bf9,</text><text font-family="sans-serif" font-size="13" lengthAdjust="spacing" textLength="125" x="1977" y="2489.1191">tickLower: 254,880,</text><text font-family="sans-serif" font-size="13" lengthAdjust="spacing" textLength="125" x="1977" y="2504.4297">tickUpper: 254,940,</text><text font-family="sans-serif" font-size="13" lengthAdjust="spacing" textLength="168" x="1977" y="2519.7402">amount0: 43,408,387,373,</text><text font-family="sans-serif" font-size="13" lengthAdjust="spacing" textLength="272" x="1977" y="2535.0508">amount1: 9,989,,181,888,668,018,345,289</text><path d="m2217 2556.793v71h162v-61l-10-10z" fill="#0ff" filter="url(#a)" stroke="#a80036"/><path d="m2369 2556.793v10h10z" fill="#0ff" stroke="#a80036"/><text font-family="sans-serif" font-size="13" lengthAdjust="spacing" textLength="56" x="2223" y="2574.3613">Transfer:</text><text font-family="sans-serif" font-size="13" lengthAdjust="spacing" textLength="132" x="2223" y="2589.6719">from: 0xCBCd..62eD,</text><text font-family="sans-serif" font-size="13" lengthAdjust="spacing" textLength="109" x="2223" y="2604.9824">to: 0x5617..5Bf9,</text><text font-family="sans-serif" font-size="13" lengthAdjust="spacing" textLength="141" x="2223" y="2620.293">value: 43,408,387,373</text><path d="m2359 2642.0352v71h262v-61l-10-10z" fill="#0ff" filter="url(#a)" stroke="#a80036"/><path d="m2611 2642.0352v10h10z" fill="#0ff" stroke="#a80036"/><text font-family="sans-serif" font-size="13" lengthAdjust="spacing" textLength="56" x="2365" y="2659.6035">Transfer:</text><text font-family="sans-serif" font-size="13" lengthAdjust="spacing" textLength="121" x="2365" y="2674.9141">src: 0xCBCd..62eD,</text><text font-family="sans-serif" font-size="13" lengthAdjust="spacing" textLength="116" x="2365" y="2690.2246">dst: 0x5617..5Bf9,</text><text font-family="sans-serif" font-size="13" lengthAdjust="spacing" textLength="241" x="2365" y="2705.5352">wad: 9,989,,181,888,668,018,345,289</text></svg>